<svg width="532" height="333" xmlns="http://www.w3.org/2000/svg" xmlns:xlink="http://www.w3.org/1999/xlink" overflow="hidden"><defs><clipPath id="clip0"><rect x="1934" y="1071" width="532" height="333"/></clipPath></defs><g clip-path="url(#clip0)" transform="translate(-1934 -1071)"><path d="M2230.23 1181.62C2233.22 1181.62 2235.7 1181.72 2237.68 1181.93 2239.66 1182.13 2241.21 1182.45 2242.34 1182.89 2243.47 1183.34 2244.28 1183.88 2244.77 1184.53 2245.25 1185.17 2245.49 1185.9 2245.49 1186.71L2245.49 1210.81 2268.98 1210.81C2269.79 1210.81 2270.5 1211.01 2271.1 1211.41 2271.71 1211.82 2272.21 1212.48 2272.62 1213.41 2273.02 1214.34 2273.32 1215.61 2273.53 1217.22 2273.73 1218.84 2273.83 1220.82 2273.83 1223.16 2273.83 1227.6 2273.42 1230.77 2272.62 1232.66 2271.81 1234.56 2270.64 1235.51 2269.11 1235.51L2245.49 1235.51 2245.49 1286.25C2245.49 1292.14 2246.42 1296.56 2248.28 1299.51 2250.13 1302.45 2253.44 1303.93 2258.21 1303.93 2259.82 1303.93 2261.27 1303.79 2262.57 1303.5 2263.86 1303.22 2265.01 1302.9 2266.02 1302.53 2267.03 1302.17 2267.87 1301.85 2268.56 1301.57 2269.25 1301.28 2269.87 1301.14 2270.44 1301.14 2270.92 1301.14 2271.39 1301.28 2271.83 1301.57 2272.27 1301.85 2272.62 1302.41 2272.86 1303.26 2273.1 1304.11 2273.32 1305.26 2273.53 1306.71 2273.73 1308.17 2273.83 1310.02 2273.83 1312.28 2273.83 1315.83 2273.61 1318.56 2273.16 1320.46 2272.72 1322.35 2272.13 1323.69 2271.41 1324.45 2270.68 1325.22 2269.61 1325.91 2268.2 1326.51 2266.78 1327.12 2265.13 1327.64 2263.23 1328.09 2261.34 1328.53 2259.28 1328.87 2257.06 1329.11 2254.84 1329.36 2252.6 1329.48 2250.34 1329.48 2244.28 1329.48 2239.03 1328.71 2234.59 1327.18 2230.15 1325.64 2226.48 1323.28 2223.57 1320.09 2220.67 1316.9 2218.53 1312.89 2217.16 1308.04 2215.78 1303.2 2215.1 1297.47 2215.1 1290.85L2215.1 1235.51 2202.14 1235.51C2200.61 1235.51 2199.44 1234.56 2198.63 1232.66 2197.82 1230.77 2197.42 1227.6 2197.42 1223.16 2197.42 1220.82 2197.52 1218.84 2197.72 1217.22 2197.92 1215.61 2198.23 1214.34 2198.63 1213.41 2199.03 1212.48 2199.54 1211.82 2200.14 1211.41 2200.75 1211.01 2201.45 1210.81 2202.26 1210.81L2215.1 1210.81 2215.1 1186.71C2215.1 1185.9 2215.32 1185.17 2215.76 1184.53 2216.21 1183.88 2217.02 1183.34 2218.19 1182.89 2219.36 1182.45 2220.93 1182.13 2222.91 1181.93 2224.89 1181.72 2227.33 1181.62 2230.23 1181.62ZM2006.7 1170.36 2027.52 1170.36C2031.24 1170.36 2034.43 1170.66 2037.09 1171.27 2039.75 1171.87 2042.05 1172.88 2043.99 1174.3 2045.93 1175.71 2047.54 1177.57 2048.84 1179.87 2050.13 1182.17 2051.26 1185.01 2052.23 1188.4L2086.13 1281.77 2086.62 1281.77 2121.73 1188.65C2122.78 1185.26 2123.93 1182.39 2125.19 1180.05 2126.44 1177.71 2127.89 1175.81 2129.55 1174.36 2131.2 1172.9 2133.16 1171.87 2135.42 1171.27 2137.68 1170.66 2140.3 1170.36 2143.29 1170.36L2164.72 1170.36C2166.9 1170.36 2168.78 1170.64 2170.35 1171.21 2171.93 1171.77 2173.22 1172.6 2174.23 1173.69 2175.24 1174.78 2176 1176.11 2176.53 1177.69 2177.05 1179.26 2177.32 1181.06 2177.32 1183.08L2177.32 1322.7C2177.32 1323.5 2177.09 1324.23 2176.65 1324.88 2176.21 1325.52 2175.4 1326.05 2174.23 1326.45 2173.06 1326.85 2171.5 1327.18 2169.57 1327.42 2167.63 1327.66 2165.17 1327.78 2162.18 1327.78 2159.27 1327.78 2156.85 1327.66 2154.91 1327.42 2152.98 1327.18 2151.44 1326.85 2150.31 1326.45 2149.18 1326.05 2148.38 1325.52 2147.89 1324.88 2147.41 1324.23 2147.16 1323.5 2147.16 1322.7L2147.16 1195.19 2146.92 1195.19 2101.51 1322.58C2101.19 1323.63 2100.66 1324.49 2099.94 1325.18 2099.21 1325.87 2098.22 1326.41 2096.97 1326.81 2095.72 1327.22 2094.13 1327.48 2092.19 1327.6 2090.25 1327.72 2087.91 1327.78 2085.16 1327.78 2082.42 1327.78 2080.08 1327.68 2078.14 1327.48 2076.2 1327.28 2074.61 1326.96 2073.36 1326.51 2072.11 1326.07 2071.12 1325.52 2070.39 1324.88 2069.66 1324.23 2069.18 1323.46 2068.94 1322.58L2025.1 1195.19 2024.86 1195.19 2024.86 1322.7C2024.86 1323.5 2024.64 1324.23 2024.19 1324.88 2023.75 1325.52 2022.92 1326.05 2021.71 1326.45 2020.5 1326.85 2018.95 1327.18 2017.05 1327.42 2015.15 1327.66 2012.71 1327.78 2009.72 1327.78 2006.82 1327.78 2004.39 1327.66 2002.46 1327.42 2000.52 1327.18 1998.97 1326.85 1997.8 1326.45 1996.62 1326.05 1995.82 1325.52 1995.37 1324.88 1994.93 1324.23 1994.71 1323.5 1994.71 1322.7L1994.71 1183.08C1994.71 1178.96 1995.8 1175.81 1997.98 1173.63 2000.16 1171.45 2003.06 1170.36 2006.7 1170.36ZM2371.09 1167.7C2377.87 1167.7 2384.05 1168.16 2389.62 1169.09 2395.19 1170.02 2400.05 1171.15 2404.21 1172.48 2408.37 1173.81 2411.82 1175.24 2414.56 1176.78 2417.31 1178.31 2419.22 1179.64 2420.31 1180.77 2421.4 1181.91 2422.19 1183.5 2422.68 1185.56 2423.16 1187.62 2423.4 1190.66 2423.4 1194.7 2423.4 1197.04 2423.3 1199.06 2423.1 1200.76 2422.9 1202.45 2422.62 1203.8 2422.25 1204.81 2421.89 1205.82 2421.44 1206.53 2420.92 1206.93 2420.4 1207.33 2419.77 1207.54 2419.04 1207.54 2417.99 1207.54 2416.3 1206.81 2413.96 1205.36 2411.62 1203.9 2408.51 1202.33 2404.63 1200.63 2400.76 1198.94 2396.14 1197.36 2390.77 1195.91 2385.4 1194.46 2379.16 1193.73 2372.06 1193.73 2364.47 1193.73 2357.61 1195.04 2351.47 1197.67 2345.34 1200.29 2340.09 1204 2335.73 1208.81 2331.37 1213.61 2328.02 1219.38 2325.68 1226.12 2323.34 1232.87 2322.17 1240.31 2322.17 1248.47 2322.17 1257.43 2323.36 1265.32 2325.74 1272.14 2328.12 1278.96 2331.45 1284.67 2335.73 1289.27 2340.01 1293.88 2345.16 1297.35 2351.17 1299.69 2357.18 1302.03 2363.82 1303.2 2371.09 1303.2 2374.64 1303.2 2378.15 1302.8 2381.63 1301.99 2385.1 1301.18 2388.33 1299.97 2391.31 1298.36L2391.31 1262.03 2361.64 1262.03C2360.19 1262.03 2359.06 1261.12 2358.25 1259.3 2357.45 1257.49 2357.04 1254.4 2357.04 1250.04 2357.04 1247.78 2357.14 1245.88 2357.35 1244.35 2357.55 1242.82 2357.85 1241.58 2358.25 1240.66 2358.66 1239.73 2359.14 1239.04 2359.71 1238.6 2360.27 1238.15 2360.92 1237.93 2361.64 1237.93L2414.56 1237.93C2415.85 1237.93 2417 1238.15 2418.01 1238.6 2419.02 1239.04 2419.91 1239.71 2420.68 1240.6 2421.44 1241.48 2422.03 1242.55 2422.43 1243.8 2422.84 1245.06 2423.04 1246.49 2423.04 1248.1L2423.04 1310.47C2423.04 1312.89 2422.62 1315.01 2421.77 1316.82 2420.92 1318.64 2419.18 1320.07 2416.56 1321.12 2413.94 1322.17 2410.69 1323.26 2406.81 1324.39 2402.94 1325.52 2398.92 1326.49 2394.76 1327.3 2390.61 1328.11 2386.41 1328.71 2382.17 1329.11 2377.93 1329.52 2373.67 1329.72 2369.39 1329.72 2356.88 1329.72 2345.68 1327.92 2335.79 1324.33 2325.9 1320.74 2317.53 1315.53 2310.66 1308.71 2303.8 1301.89 2298.55 1293.57 2294.92 1283.77 2291.29 1273.96 2289.47 1262.84 2289.47 1250.4 2289.47 1237.57 2291.41 1226.04 2295.29 1215.83 2299.16 1205.62 2304.65 1196.94 2311.75 1189.8 2318.86 1182.65 2327.44 1177.18 2337.49 1173.39 2347.54 1169.59 2358.74 1167.7 2371.09 1167.7Z" fill="#5B9BD5" fill-rule="evenodd"/><path d="M2230.3 1184.18 2226.4 1184.24 2223.35 1184.4 2220.92 1184.78 2219.11 1185.27 2218.22 1185.74 2217.86 1186.08 2217.73 1186.33 2217.63 1186.94 2217.63 1210.81C2217.63 1212.19 2216.51 1213.31 2215.13 1213.31L2202.68 1213.31 2201.47 1213.66 2201.3 1213.82 2200.93 1214.46 2200.6 1215.48 2200.25 1217.48 2200.01 1219.98 2199.95 1223.13 2200 1226.01 2200.22 1228.45 2200.52 1230.32 2200.91 1231.58 2201.72 1232.76 2202.6 1233.06 2215.13 1233.06C2216.51 1233.06 2217.63 1234.18 2217.63 1235.56L2217.63 1290.73 2218.09 1299.64 2219.6 1307.35 2222.04 1313.55 2225.49 1318.42 2229.94 1322.19 2235.47 1324.81 2242.26 1326.45 2250.24 1327 2256.67 1326.65 2262.68 1325.68 2267.27 1324.25 2268.69 1323.46 2269.57 1322.78 2270.16 1321.87 2270.75 1319.94 2271.2 1316.96 2271.38 1312.36 2271.33 1309.49 2271.1 1307.14 2270.83 1305.41 2270.5 1304.09 2270.37 1303.77 2270.34 1303.76 2269.45 1303.96 2266.76 1304.96 2263.26 1305.96C2263.1 1306 2262.95 1306.03 2262.79 1306.05L2258.47 1306.42C2258.34 1306.43 2258.2 1306.43 2258.07 1306.42L2254.76 1306.17C2254.58 1306.16 2254.41 1306.13 2254.24 1306.08L2251.49 1305.27C2251.28 1305.2 2251.08 1305.12 2250.89 1305L2248.64 1303.63C2248.41 1303.49 2248.2 1303.31 2248.03 1303.1L2246.41 1301.16C2246.28 1301.01 2246.17 1300.85 2246.08 1300.67L2244.83 1298.17C2244.77 1298.04 2244.71 1297.9 2244.67 1297.76L2243.8 1294.76C2243.76 1294.64 2243.74 1294.52 2243.72 1294.4L2243.2 1290.54 2243.01 1286.31 2243.01 1235.56C2243.01 1234.18 2244.13 1233.06 2245.51 1233.06L2268.73 1233.06 2269.58 1232.77 2270.37 1231.57 2270.77 1230.43 2271.08 1228.63 2271.32 1226.19 2271.38 1223.23 2271.33 1220.16 2271.11 1217.67 2270.77 1215.68 2270.33 1214.43 2269.99 1213.79 2269.86 1213.66 2268.65 1213.31 2245.51 1213.31C2244.13 1213.31 2243.01 1212.19 2243.01 1210.81L2243.01 1187.13 2242.65 1185.98 2242.4 1185.76 2241.45 1185.26 2239.98 1184.84 2237.55 1184.43 2234.35 1184.24ZM2230.22 1179.18 2234.42 1179.24 2237.84 1179.44 2240.78 1179.9 2243.06 1180.52C2243.23 1180.57 2243.39 1180.63 2243.54 1180.71L2244.98 1181.46C2245.15 1181.56 2245.32 1181.67 2245.47 1181.8L2246.47 1182.67C2246.81 1182.98 2247.07 1183.37 2247.21 1183.81L2247.89 1185.99C2247.97 1186.24 2248.01 1186.49 2248.01 1186.74L2248.01 1208.31 2269.01 1208.31C2269.25 1208.31 2269.48 1208.34 2269.71 1208.41L2271.84 1209.03C2272.21 1209.14 2272.55 1209.34 2272.83 1209.6L2273.71 1210.41C2273.92 1210.6 2274.09 1210.83 2274.22 1211.08L2274.85 1212.27C2274.9 1212.38 2274.95 1212.49 2275 1212.61L2275.56 1214.24C2275.6 1214.37 2275.64 1214.5 2275.66 1214.63L2276.03 1216.82 2276.31 1219.7 2276.38 1223.13 2276.32 1226.29 2276.06 1229.11 2275.66 1231.48C2275.64 1231.61 2275.6 1231.74 2275.56 1231.87L2275 1233.5C2274.93 1233.69 2274.84 1233.88 2274.72 1234.05L2273.28 1236.24C2272.98 1236.71 2272.52 1237.06 2271.99 1237.24L2269.92 1237.93C2269.67 1238.01 2269.4 1238.06 2269.13 1238.06L2248.01 1238.06 2248.01 1286.31 2248.19 1290.32 2248.65 1293.53 2249.41 1296.14 2250.43 1298.18 2251.6 1299.57 2253.22 1300.56 2255.4 1301.21 2258.24 1301.42 2262.11 1301.09 2265.38 1300.15 2267.69 1299.28 2269.88 1298.75C2270.31 1298.65 2270.75 1298.66 2271.17 1298.79L2272.61 1299.23C2273.05 1299.36 2273.44 1299.61 2273.74 1299.95L2274.3 1300.57C2274.5 1300.78 2274.65 1301.03 2274.76 1301.29L2275.19 1302.35C2275.24 1302.47 2275.28 1302.58 2275.31 1302.7L2275.68 1304.2 2276.04 1306.35 2276.31 1308.99 2276.38 1312.26 2276.19 1317.15 2275.67 1320.85C2275.65 1320.98 2275.62 1321.11 2275.58 1321.23L2274.83 1323.67C2274.77 1323.88 2274.67 1324.09 2274.55 1324.28L2273.55 1325.84C2273.4 1326.08 2273.2 1326.3 2272.97 1326.47L2271.6 1327.53C2271.5 1327.61 2271.39 1327.68 2271.28 1327.75L2269.47 1328.75C2269.32 1328.83 2269.16 1328.89 2269 1328.94L2264 1330.5C2263.89 1330.54 2263.77 1330.57 2263.66 1330.59L2257.47 1331.59 2250.52 1331.99 2241.72 1331.43C2241.58 1331.42 2241.43 1331.39 2241.3 1331.36L2234.05 1329.61C2233.88 1329.57 2233.72 1329.51 2233.56 1329.44L2227.5 1326.57C2227.3 1326.47 2227.12 1326.35 2226.95 1326.21L2222.02 1322.03C2221.86 1321.89 2221.71 1321.74 2221.59 1321.57L2217.78 1316.19C2217.66 1316.02 2217.57 1315.85 2217.49 1315.66L2214.87 1308.97C2214.81 1308.83 2214.77 1308.69 2214.74 1308.54L2213.18 1300.6 2212.64 1291 2212.63 1238.06 2202.2 1238.06C2201.93 1238.06 2201.66 1238.01 2201.41 1237.93L2199.34 1237.24C2198.83 1237.07 2198.38 1236.73 2198.07 1236.28L2196.57 1234.09C2196.43 1233.89 2196.32 1233.66 2196.24 1233.42L2195.74 1231.79 2195.29 1229.29 2195.02 1226.48 2194.95 1223.23 2195.01 1219.88 2195.27 1217.01 2195.67 1214.63 2196.24 1212.7C2196.3 1212.52 2196.38 1212.34 2196.47 1212.18L2197.16 1210.99C2197.28 1210.78 2197.44 1210.58 2197.62 1210.41L2198.49 1209.6C2198.78 1209.34 2199.12 1209.14 2199.49 1209.03L2201.62 1208.41C2201.84 1208.34 2202.08 1208.31 2202.32 1208.31L2212.63 1208.31 2212.63 1186.74C2212.63 1186.61 2212.64 1186.48 2212.66 1186.35L2212.85 1185.17C2212.89 1184.91 2212.97 1184.67 2213.08 1184.44L2213.58 1183.44C2213.72 1183.17 2213.9 1182.93 2214.11 1182.73L2215.05 1181.85C2215.22 1181.7 2215.4 1181.57 2215.6 1181.46L2217.04 1180.71C2217.2 1180.63 2217.36 1180.57 2217.54 1180.52L2219.6 1179.96 2222.54 1179.46 2226.12 1179.25ZM2006.88 1172.86 2004.55 1173.03 2002.73 1173.53 2001.14 1174.34 1999.8 1175.44 1998.72 1176.81 1997.94 1178.51 1997.43 1180.57 1997.26 1183.12 1997.26 1322.39 1997.6 1323.58 1997.73 1323.7 1998.65 1324.12 2000.29 1324.53 2002.75 1324.94 2005.8 1325.24 2009.72 1325.31 2013.58 1325.26 2016.65 1324.97 2019.06 1324.56 2020.94 1324.12 2021.85 1323.7 2022.18 1323.39 2022.34 1323.1 2022.38 1322.74 2022.38 1195.24C2022.38 1193.86 2023.5 1192.74 2024.88 1192.74L2025.13 1192.74C2026.2 1192.74 2027.15 1193.42 2027.5 1194.43L2071.21 1321.52 2072.28 1323.16 2072.93 1323.62 2074.23 1324.2 2075.85 1324.64 2078.39 1325 2081.42 1325.24 2085.15 1325.31 2088.91 1325.25 2091.96 1325.13 2094.31 1324.94 2096.21 1324.49 2097.42 1323.95 2098.08 1323.46 2099.31 1321.52 2144.59 1194.4C2144.95 1193.41 2145.89 1192.74 2146.95 1192.74L2147.2 1192.74C2148.58 1192.74 2149.7 1193.86 2149.7 1195.24L2149.7 1322.33 2150.11 1323.53 2150.31 1323.72 2151.18 1324.13 2152.73 1324.53 2155.18 1324.94 2158.23 1325.24 2162.16 1325.31 2166.02 1325.25 2169.16 1324.97 2171.61 1324.56 2173.44 1324.12 2174.35 1323.7 2174.48 1323.58 2174.82 1322.39 2174.83 1183.28 2174.65 1180.6 2174.19 1178.55 2173.4 1176.82 2172.42 1175.47 2171.14 1174.42 2169.52 1173.61 2167.42 1173.09 2164.76 1172.87 2143.47 1172.86 2139.59 1173.08 2136.15 1173.72 2133.48 1174.78 2131.21 1176.28 2129.24 1178.47 2127.38 1181.28 2125.75 1184.81 2124.1 1189.56 2088.97 1282.69C2088.6 1283.66 2087.67 1284.31 2086.63 1284.31L2086.13 1284.31C2085.08 1284.31 2084.14 1283.65 2083.78 1282.66L2049.89 1189.22 2048.43 1184.8 2046.72 1181.14 2044.81 1178.46 2042.53 1176.35 2039.81 1174.85 2036.53 1173.74 2032.64 1173.12 2027.57 1172.87ZM2371.24 1170.24 2362.38 1170.6 2353.97 1171.63 2346.03 1173.31 2338.5 1175.73 2331.49 1178.73 2324.96 1182.4 2319.06 1186.6 2313.64 1191.46 2308.79 1196.95 2304.5 1202.9 2300.8 1209.49 2297.7 1216.64 2295.2 1224.27 2293.43 1232.48 2292.38 1241.16 2292.01 1250.34 2292.3 1259.19 2293.33 1267.61 2294.96 1275.44 2297.25 1282.83 2300.13 1289.64 2303.68 1295.99 2307.67 1301.69 2312.35 1306.87 2317.56 1311.51 2323.34 1315.56 2329.67 1319.06 2336.55 1321.98 2343.95 1324.23 2351.94 1325.89 2360.34 1326.93 2369.32 1327.25 2381.84 1326.64 2394.24 1324.88 2406.07 1322.05 2411.35 1320.39 2415.53 1318.9 2418.23 1317.37 2419.58 1315.67 2420.29 1313.43 2420.57 1310.49 2420.57 1248.3 2420.04 1244.61 2418.76 1242.29 2417.02 1240.96 2414.33 1240.43 2362.13 1240.43 2361.32 1240.72 2360.52 1241.83 2360.22 1242.75 2359.87 1244.61 2359.63 1246.98 2359.57 1250.01 2359.62 1252.87 2359.84 1255.17 2360.15 1256.95 2360.53 1258.2 2361.28 1259.27 2362.11 1259.56 2391.32 1259.56C2392.7 1259.56 2393.82 1260.68 2393.82 1262.06L2393.82 1298.37C2393.82 1299.35 2393.25 1300.23 2392.36 1300.64L2387.74 1302.77C2387.63 1302.82 2387.52 1302.86 2387.41 1302.89L2382.08 1304.45 2376.59 1305.43 2371.02 1305.74 2365.52 1305.48 2360.13 1304.8 2355.05 1303.62 2350.16 1302.02 2345.54 1299.89 2341.3 1297.36 2337.4 1294.36 2333.82 1290.88 2330.67 1287 2327.86 1282.72 2325.37 1277.98 2323.36 1272.89 2321.74 1267.35 2320.58 1261.37 2319.95 1255.09 2319.7 1248.39 2319.96 1242.22 2320.62 1236.3 2321.79 1230.67 2323.29 1225.49C2323.33 1225.37 2323.37 1225.25 2323.42 1225.14L2327.9 1215.46 2330.76 1211.04 2333.99 1207.1 2337.65 1203.47 2341.67 1200.32 2345.97 1197.63 2350.64 1195.34 2355.68 1193.5 2360.9 1192.27 2366.4 1191.5 2372.21 1191.25 2382.59 1191.85 2391.56 1193.54 2399.22 1195.91 2405.69 1198.41 2411.08 1200.92 2415.23 1203.19 2417.93 1204.71 2418.96 1204.96 2419.54 1204.76 2419.58 1204.72 2419.9 1204.01 2420.29 1202.65 2420.64 1200.58 2420.88 1197.95 2420.95 1194.8 2420.89 1192 2420.78 1189.72 2420.55 1187.76 2420.27 1186.25 2419.51 1184.01 2418.47 1182.52 2416.75 1181.11 2413.48 1179.05 2409.09 1176.91 2403.62 1174.91 2396.96 1173.13 2389.33 1171.6 2380.74 1170.55ZM2027.57 1167.87 2032.88 1168.12 2037.52 1168.84C2037.66 1168.86 2037.8 1168.89 2037.94 1168.94L2041.62 1170.19C2041.76 1170.24 2041.9 1170.29 2042.02 1170.36L2045.21 1172.11C2045.39 1172.21 2045.56 1172.34 2045.71 1172.48L2048.4 1174.98C2048.52 1175.09 2048.63 1175.22 2048.73 1175.35L2050.92 1178.42C2051.01 1178.54 2051.08 1178.67 2051.15 1178.81L2052.96 1182.68 2054.63 1187.64 2086.42 1275.28 2119.42 1187.8 2121.02 1183.17 2122.92 1179.01C2122.98 1178.9 2123.04 1178.78 2123.11 1178.68L2125.17 1175.55C2125.24 1175.45 2125.32 1175.35 2125.4 1175.26L2127.71 1172.69C2127.86 1172.54 2128.02 1172.4 2128.19 1172.28L2130.94 1170.47C2131.09 1170.38 2131.24 1170.3 2131.39 1170.23L2134.52 1168.98C2134.67 1168.92 2134.83 1168.88 2134.99 1168.85L2138.67 1168.16 2143.17 1167.87 2164.76 1167.87 2168.02 1168.13C2168.16 1168.14 2168.29 1168.16 2168.41 1168.19L2170.98 1168.81C2171.16 1168.86 2171.33 1168.92 2171.5 1169.01L2173.63 1170.07C2173.79 1170.15 2173.95 1170.26 2174.09 1170.37L2175.84 1171.81C2176.01 1171.95 2176.16 1172.1 2176.28 1172.28L2177.6 1174.09C2177.69 1174.22 2177.78 1174.37 2177.84 1174.52L2178.84 1176.7C2178.92 1176.86 2178.97 1177.03 2179.01 1177.19L2179.57 1179.69C2179.6 1179.82 2179.62 1179.95 2179.63 1180.08L2179.82 1182.96 2179.82 1322.74C2179.82 1322.98 2179.79 1323.21 2179.72 1323.43L2179.1 1325.62C2178.97 1326.05 2178.73 1326.45 2178.4 1326.76L2177.46 1327.63C2177.27 1327.82 2177.04 1327.97 2176.8 1328.08L2175.3 1328.77C2175.15 1328.83 2175 1328.89 2174.85 1328.92L2172.78 1329.42 2169.98 1329.9 2166.49 1330.23 2162.23 1330.31 2158.16 1330.24 2154.71 1329.92 2151.91 1329.46 2149.71 1328.92C2149.55 1328.88 2149.39 1328.82 2149.24 1328.75L2147.8 1328.06C2147.57 1327.95 2147.36 1327.81 2147.18 1327.63L2146.24 1326.76C2145.94 1326.48 2145.71 1326.13 2145.58 1325.74L2144.83 1323.55C2144.74 1323.29 2144.7 1323.02 2144.7 1322.74L2144.7 1209.01 2103.93 1323.46C2103.86 1323.63 2103.78 1323.8 2103.68 1323.96L2102.06 1326.52C2101.89 1326.78 2101.69 1327 2101.45 1327.18L2100.2 1328.12C2100.05 1328.23 2099.88 1328.33 2099.71 1328.4L2098.02 1329.15C2097.88 1329.22 2097.73 1329.27 2097.58 1329.3L2095.46 1329.8 2092.43 1330.11 2089.11 1330.24 2085.24 1330.31 2081.34 1330.24 2078 1329.99 2075.16 1329.59 2072.74 1328.97C2072.61 1328.94 2072.49 1328.89 2072.37 1328.84L2070.68 1328.09C2070.53 1328.03 2070.39 1327.95 2070.26 1327.85L2069.01 1326.98C2068.75 1326.79 2068.52 1326.56 2068.35 1326.29L2066.85 1323.98C2066.74 1323.81 2066.65 1323.62 2066.58 1323.43L2027.38 1209.47 2027.38 1322.74 2027.24 1324.14C2027.21 1324.46 2027.11 1324.76 2026.97 1325.04L2026.41 1326.1C2026.27 1326.35 2026.1 1326.57 2025.9 1326.76L2024.96 1327.63C2024.77 1327.82 2024.54 1327.97 2024.3 1328.08L2022.8 1328.77C2022.65 1328.84 2022.49 1328.89 2022.33 1328.93L2020.21 1329.43 2017.49 1329.9 2014.06 1330.23 2009.8 1330.31 2005.72 1330.24 2002.27 1329.92 1999.47 1329.46 1997.23 1328.92C1997.08 1328.89 1996.92 1328.83 1996.78 1328.77L1995.28 1328.08C1995.04 1327.97 1994.81 1327.82 1994.61 1327.63L1993.68 1326.76C1993.35 1326.45 1993.1 1326.05 1992.98 1325.62L1992.35 1323.43C1992.29 1323.21 1992.26 1322.98 1992.26 1322.74L1992.26 1183.12 1992.45 1180.02C1992.46 1179.87 1992.48 1179.72 1992.52 1179.57L1993.15 1177.07C1993.18 1176.93 1993.23 1176.78 1993.3 1176.64L1994.3 1174.45C1994.38 1174.27 1994.49 1174.1 1994.61 1173.94L1996.05 1172.13C1996.16 1171.99 1996.28 1171.86 1996.42 1171.75L1998.17 1170.31C1998.31 1170.2 1998.46 1170.1 1998.61 1170.02L2000.68 1168.96C2000.83 1168.88 2001 1168.81 2001.17 1168.77L2003.48 1168.14C2003.63 1168.1 2003.79 1168.07 2003.95 1168.06L2006.51 1167.88ZM2371.03 1165.25 2380.9 1165.56 2389.93 1166.64 2397.94 1168.23 2404.9 1170.08 2410.8 1172.21 2415.66 1174.56 2419.4 1176.87 2421.89 1178.86C2422.07 1179.01 2422.24 1179.18 2422.37 1179.38L2423.81 1181.44C2423.94 1181.63 2424.05 1181.84 2424.12 1182.06L2425.06 1184.81C2425.1 1184.93 2425.13 1185.04 2425.15 1185.16L2425.47 1186.85 2425.74 1189.14 2425.88 1191.74 2425.94 1194.69 2425.88 1198.04 2425.62 1201.03 2425.22 1203.47 2424.67 1205.53C2424.63 1205.66 2424.59 1205.78 2424.54 1205.89L2423.98 1207.14C2423.86 1207.39 2423.72 1207.62 2423.53 1207.81L2422.78 1208.63C2422.5 1208.94 2422.14 1209.17 2421.74 1209.3L2419.86 1209.93C2419.42 1210.08 2418.94 1210.1 2418.48 1209.99L2416.42 1209.49C2416.2 1209.43 2415.98 1209.35 2415.78 1209.24L2412.78 1207.55 2408.69 1205.31 2403.58 1202.95 2397.42 1200.58 2390.08 1198.32 2381.67 1196.76 2371.93 1196.24 2366.62 1196.49 2361.61 1197.22 2356.84 1198.36 2352.37 1200.03 2348.18 1202.11 2344.34 1204.55 2340.74 1207.4 2337.53 1210.64 2334.63 1214.2 2332.11 1218.16 2328.05 1227.05 2326.6 1232.06 2325.52 1237.31 2324.93 1242.77 2324.69 1248.6 2324.94 1254.9 2325.56 1260.86 2326.65 1266.39 2328.16 1271.48 2330.02 1276.13 2332.28 1280.39 2334.84 1284.24 2337.7 1287.73 2340.87 1290.76 2344.34 1293.38 2348.1 1295.59 2352.23 1297.47 2356.59 1298.87 2361.26 1299.93 2366.12 1300.51 2371.25 1300.75 2376.3 1300.44 2381.19 1299.53 2385.81 1298.15 2388.82 1296.77 2388.82 1264.56 2361.7 1264.56C2361.42 1264.56 2361.14 1264.51 2360.88 1264.42L2358.88 1263.73C2358.38 1263.56 2357.95 1263.23 2357.64 1262.8L2356.21 1260.74C2356.06 1260.52 2355.94 1260.29 2355.87 1260.04L2355.37 1258.42 2354.92 1256.07 2354.65 1253.37 2354.57 1250.11 2354.63 1246.88 2354.89 1244.13 2355.3 1241.86 2355.87 1239.95C2355.95 1239.68 2356.07 1239.43 2356.24 1239.21L2357.74 1237.15C2358.03 1236.74 2358.45 1236.43 2358.92 1236.26L2360.86 1235.58C2361.13 1235.48 2361.41 1235.43 2361.7 1235.43L2414.57 1235.43C2414.73 1235.43 2414.89 1235.45 2415.05 1235.48L2418.55 1236.17C2418.93 1236.24 2419.28 1236.4 2419.59 1236.63L2422.21 1238.63C2422.49 1238.84 2422.72 1239.11 2422.89 1239.42L2424.64 1242.6C2424.78 1242.87 2424.88 1243.15 2424.92 1243.45L2425.54 1247.76C2425.56 1247.88 2425.57 1248 2425.57 1248.12L2425.57 1310.49 2425.25 1314.16C2425.23 1314.34 2425.2 1314.52 2425.14 1314.69L2424.2 1317.63C2424.11 1317.92 2423.97 1318.19 2423.78 1318.42L2421.84 1320.86C2421.64 1321.11 2421.39 1321.32 2421.11 1321.48L2417.8 1323.36C2417.68 1323.43 2417.55 1323.49 2417.41 1323.54L2413.04 1325.1 2407.57 1326.82 2395.4 1329.74 2382.55 1331.59 2369.57 1332.24 2360.17 1331.93 2351.33 1330.85 2342.94 1329.13 2335.09 1326.76 2327.73 1323.67 2320.92 1319.93 2314.7 1315.61 2309.04 1310.62 2303.97 1305.05 2299.59 1298.87 2295.77 1292.09 2292.64 1284.78 2290.18 1276.92 2288.44 1268.63 2287.34 1259.8 2287.01 1250.52 2287.39 1240.96 2288.46 1231.88 2290.31 1223.22 2292.94 1215.1 2296.21 1207.5 2300.14 1200.46 2304.73 1194.04 2309.88 1188.16 2315.71 1182.89 2322.05 1178.33 2329.03 1174.38 2336.52 1171.14 2344.49 1168.55 2352.92 1166.74 2361.76 1165.64Z" fill="#5B9BD5" fill-rule="evenodd"/><path d="M2222.58 1173.96C2225.56 1173.96 2228.04 1174.06 2230.02 1174.27 2232 1174.47 2233.55 1174.79 2234.68 1175.23 2235.81 1175.68 2236.62 1176.22 2237.11 1176.87 2237.59 1177.52 2237.83 1178.24 2237.83 1179.05L2237.83 1203.15 2261.33 1203.15C2262.13 1203.15 2262.84 1203.35 2263.44 1203.75 2264.05 1204.16 2264.55 1204.82 2264.96 1205.75 2265.36 1206.68 2265.66 1207.95 2265.87 1209.56 2266.07 1211.18 2266.17 1213.16 2266.17 1215.5 2266.17 1219.94 2265.77 1223.11 2264.96 1225 2264.15 1226.9 2262.98 1227.85 2261.45 1227.85L2237.83 1227.85 2237.83 1278.59C2237.83 1284.48 2238.76 1288.9 2240.62 1291.85 2242.48 1294.79 2245.78 1296.27 2250.55 1296.27 2252.16 1296.27 2253.62 1296.13 2254.91 1295.84 2256.2 1295.56 2257.35 1295.24 2258.36 1294.88 2259.37 1294.51 2260.22 1294.19 2260.9 1293.91 2261.59 1293.62 2262.21 1293.48 2262.78 1293.48 2263.26 1293.48 2263.73 1293.62 2264.17 1293.91 2264.61 1294.19 2264.96 1294.75 2265.2 1295.6 2265.44 1296.45 2265.66 1297.6 2265.87 1299.05 2266.07 1300.51 2266.17 1302.36 2266.17 1304.62 2266.17 1308.18 2265.95 1310.9 2265.5 1312.8 2265.06 1314.69 2264.47 1316.03 2263.75 1316.79 2263.02 1317.56 2261.95 1318.25 2260.54 1318.85 2259.13 1319.46 2257.47 1319.98 2255.57 1320.43 2253.68 1320.87 2251.62 1321.21 2249.4 1321.46 2247.18 1321.7 2244.94 1321.82 2242.68 1321.82 2236.62 1321.82 2231.37 1321.05 2226.93 1319.52 2222.49 1317.98 2218.82 1315.62 2215.92 1312.43 2213.01 1309.25 2210.87 1305.23 2209.5 1300.39 2208.12 1295.54 2207.44 1289.81 2207.44 1283.19L2207.44 1227.85 2194.48 1227.85C2192.95 1227.85 2191.78 1226.9 2190.97 1225 2190.16 1223.11 2189.76 1219.94 2189.76 1215.5 2189.76 1213.16 2189.86 1211.18 2190.06 1209.56 2190.26 1207.95 2190.57 1206.68 2190.97 1205.75 2191.37 1204.82 2191.88 1204.16 2192.48 1203.75 2193.09 1203.35 2193.8 1203.15 2194.6 1203.15L2207.44 1203.15 2207.44 1179.05C2207.44 1178.24 2207.66 1177.52 2208.1 1176.87 2208.55 1176.22 2209.36 1175.68 2210.53 1175.23 2211.7 1174.79 2213.27 1174.47 2215.25 1174.27 2217.23 1174.06 2219.67 1173.96 2222.58 1173.96ZM1999.04 1162.7 2019.86 1162.7C2023.58 1162.7 2026.77 1163 2029.43 1163.61 2032.09 1164.22 2034.4 1165.22 2036.33 1166.64 2038.27 1168.05 2039.89 1169.91 2041.18 1172.21 2042.47 1174.51 2043.6 1177.35 2044.57 1180.74L2078.47 1274.11 2078.96 1274.11 2114.08 1180.99C2115.12 1177.6 2116.28 1174.73 2117.53 1172.39 2118.78 1170.05 2120.23 1168.15 2121.89 1166.7 2123.54 1165.24 2125.5 1164.22 2127.76 1163.61 2130.02 1163 2132.64 1162.7 2135.63 1162.7L2157.06 1162.7C2159.24 1162.7 2161.12 1162.98 2162.69 1163.55 2164.27 1164.11 2165.56 1164.94 2166.57 1166.03 2167.58 1167.12 2168.35 1168.45 2168.87 1170.03 2169.4 1171.6 2169.66 1173.4 2169.66 1175.42L2169.66 1315.04C2169.66 1315.84 2169.44 1316.57 2168.99 1317.22 2168.55 1317.86 2167.74 1318.39 2166.57 1318.79 2165.4 1319.2 2163.84 1319.52 2161.91 1319.76 2159.97 1320 2157.51 1320.12 2154.52 1320.12 2151.61 1320.12 2149.19 1320 2147.25 1319.76 2145.32 1319.52 2143.78 1319.2 2142.65 1318.79 2141.52 1318.39 2140.72 1317.86 2140.23 1317.22 2139.75 1316.57 2139.5 1315.84 2139.5 1315.04L2139.5 1187.53 2139.26 1187.53 2093.85 1314.92C2093.53 1315.97 2093 1316.83 2092.28 1317.52 2091.55 1318.21 2090.56 1318.75 2089.31 1319.15 2088.06 1319.56 2086.47 1319.82 2084.53 1319.94 2082.59 1320.06 2080.25 1320.12 2077.5 1320.12 2074.76 1320.12 2072.42 1320.02 2070.48 1319.82 2068.54 1319.62 2066.95 1319.3 2065.7 1318.85 2064.45 1318.41 2063.46 1317.86 2062.73 1317.22 2062 1316.57 2061.52 1315.8 2061.28 1314.92L2017.44 1187.53 2017.2 1187.53 2017.2 1315.04C2017.2 1315.84 2016.98 1316.57 2016.53 1317.22 2016.09 1317.86 2015.26 1318.39 2014.05 1318.79 2012.84 1319.2 2011.29 1319.52 2009.39 1319.76 2007.49 1320 2005.05 1320.12 2002.06 1320.12 1999.16 1320.12 1996.74 1320 1994.8 1319.76 1992.86 1319.52 1991.31 1319.2 1990.14 1318.79 1988.97 1318.39 1988.16 1317.86 1987.71 1317.22 1987.27 1316.57 1987.05 1315.84 1987.05 1315.04L1987.05 1175.42C1987.05 1171.3 1988.14 1168.15 1990.32 1165.97 1992.5 1163.79 1995.4 1162.7 1999.04 1162.7ZM2363.43 1160.04C2370.21 1160.04 2376.39 1160.5 2381.96 1161.43 2387.53 1162.36 2392.39 1163.49 2396.55 1164.82 2400.71 1166.15 2404.16 1167.59 2406.9 1169.12 2409.65 1170.65 2411.57 1171.99 2412.66 1173.12 2413.75 1174.25 2414.53 1175.84 2415.02 1177.9 2415.5 1179.96 2415.74 1183 2415.74 1187.04 2415.74 1189.38 2415.64 1191.4 2415.44 1193.1 2415.24 1194.79 2414.96 1196.14 2414.59 1197.15 2414.23 1198.16 2413.79 1198.87 2413.26 1199.27 2412.74 1199.68 2412.11 1199.88 2411.38 1199.88 2410.33 1199.88 2408.64 1199.15 2406.3 1197.7 2403.96 1196.24 2400.85 1194.67 2396.97 1192.97 2393.1 1191.28 2388.48 1189.71 2383.11 1188.25 2377.74 1186.8 2371.5 1186.07 2364.4 1186.07 2356.81 1186.07 2349.95 1187.38 2343.81 1190.01 2337.68 1192.63 2332.43 1196.35 2328.07 1201.15 2323.71 1205.95 2320.36 1211.72 2318.02 1218.47 2315.68 1225.21 2314.51 1232.65 2314.51 1240.81 2314.51 1249.77 2315.7 1257.66 2318.08 1264.48 2320.46 1271.3 2323.79 1277.01 2328.07 1281.62 2332.35 1286.22 2337.5 1289.69 2343.51 1292.03 2349.53 1294.37 2356.17 1295.54 2363.43 1295.54 2366.98 1295.54 2370.49 1295.14 2373.97 1294.33 2377.44 1293.52 2380.67 1292.31 2383.65 1290.7L2383.65 1254.37 2353.99 1254.37C2352.53 1254.37 2351.4 1253.46 2350.59 1251.64 2349.79 1249.83 2349.38 1246.74 2349.38 1242.38 2349.38 1240.12 2349.48 1238.22 2349.69 1236.69 2349.89 1235.16 2350.19 1233.92 2350.59 1233 2351 1232.07 2351.48 1231.38 2352.05 1230.94 2352.61 1230.49 2353.26 1230.27 2353.99 1230.27L2406.9 1230.27C2408.2 1230.27 2409.35 1230.49 2410.35 1230.94 2411.36 1231.38 2412.25 1232.05 2413.02 1232.94 2413.79 1233.82 2414.37 1234.89 2414.77 1236.14 2415.18 1237.4 2415.38 1238.83 2415.38 1240.44L2415.38 1302.81C2415.38 1305.23 2414.96 1307.35 2414.11 1309.16 2413.26 1310.98 2411.53 1312.41 2408.9 1313.46 2406.28 1314.51 2403.03 1315.6 2399.15 1316.73 2395.28 1317.86 2391.26 1318.83 2387.1 1319.64 2382.95 1320.45 2378.75 1321.05 2374.51 1321.46 2370.27 1321.86 2366.01 1322.06 2361.74 1322.06 2349.22 1322.06 2338.02 1320.26 2328.13 1316.67 2318.24 1313.08 2309.87 1307.87 2303 1301.05 2296.14 1294.23 2290.9 1285.91 2287.26 1276.11 2283.63 1266.3 2281.81 1255.18 2281.81 1242.74 2281.81 1229.91 2283.75 1218.38 2287.63 1208.17 2291.5 1197.96 2296.99 1189.28 2304.09 1182.14 2311.2 1174.99 2319.78 1169.52 2329.83 1165.73 2339.88 1161.93 2351.08 1160.04 2363.43 1160.04Z" stroke="#FFFFFF" stroke-width="5" stroke-linejoin="round" stroke-miterlimit="10" fill="#262626" fill-rule="evenodd"/><text fill="#000000" fill-opacity="0" font-family="Arial,Arial_MSFontService,sans-serif" font-size="162.023" x="1987.05" y="1301.81">MtG</text></g></svg>